<svg xmlns="http://www.w3.org/2000/svg" width="1138.348" height="218.406" viewBox="0 0 1138.348 218.406">
  <metadata><?xpacket begin="﻿" id="W5M0MpCehiHzreSzNTczkc9d"?>
<x:xmpmeta xmlns:x="adobe:ns:meta/" x:xmptk="Adobe XMP Core 5.6-c142 79.160924, 2017/07/13-01:06:39        ">
   <rdf:RDF xmlns:rdf="http://www.w3.org/1999/02/22-rdf-syntax-ns#">
      <rdf:Description rdf:about=""/>
   </rdf:RDF>
</x:xmpmeta>
                                                                                                    
                                                                                                    
                                                                                                    
                                                                                                    
                                                                                                    
                                                                                                    
                                                                                                    
                                                                                                    
                                                                                                    
                                                                                                    
                                                                                                    
                                                                                                    
                                                                                                    
                                                                                                    
                                                                                                    
                                                                                                    
                                                                                                    
                                                                                                    
                                                                                                    
                                                                                                    
                           
<?xpacket end="w"?></metadata>
<defs>
    <style>
      .cls-1 {
        fill: #0a0a0a;
        fill-rule: evenodd;
      }
    </style>
  </defs>
  <path id="LUMINA" class="cls-1" d="M166.831,231.8l7.471-35.888H65.024L102.378,17.05H58.286L13.315,231.8H166.831Zm49.805-101.66q-4.542,21.974-5.127,26.66a90.567,90.567,0,0,0-1.026,13.038q0,28.858,19.922,47.241t57.422,18.384q31.346,0,51.856-12.305T370.3,191.22q10.107-19.628,17.871-56.689L412.632,17.05H368.54L343.931,134.384q-5.86,28.421-11.573,40.284a40,40,0,0,1-16.113,17.871q-10.4,6.008-26.367,6.005-17.726,0-27.026-8.276a26.894,26.894,0,0,1-9.3-21.02,43.55,43.55,0,0,1,.586-6.885l6.006-28.711,24.316-116.6H240.366ZM620.347,53.671L578.013,231.8H618.3L663.267,17.05H599.546L526.3,167.49,519.712,17.05H456.724L411.9,231.8h39.844L485.874,52.353,493.638,231.8h41.894ZM704.282,231.8L749.106,17.05H705.015L660.044,231.8h44.238ZM961.8,17.05H920.786l-30.029,143.7L832.6,17.05H791.294L746.47,231.8h41.162L817.808,87.509,875.815,231.8h41.163ZM1109.75,231.8h41.9L1116.78,17.05h-49.07L946.274,231.8h45.411l25.785-47.46h85.1Zm-76.9-83.2,51.85-86.425,12.45,86.426h-64.3Z" transform="translate(-13.313 -17.063)"/>
</svg>
